<svg xmlns="http://www.w3.org/2000/svg" width="48" height="48" viewBox="0 0 48 48" version="1.1"><path d="M 20.599 9.839 C 19.804 11.126, 11.569 36.244, 11.531 37.500 C 11.514 38.050, 12.608 38.500, 13.962 38.500 C 15.984 38.500, 16.584 37.828, 17.312 34.750 L 18.199 31 23.561 31 L 28.923 31 30 35 C 30.727 37.701, 31.633 38.995, 32.789 38.985 C 36.970 38.947, 36.949 37.773, 32.520 23.486 L 28.183 9.500 24.685 9.195 C 22.760 9.028, 20.922 9.317, 20.599 9.839 M 22.087 19.104 C 21.411 21.361, 20.616 23.836, 20.322 24.604 C 19.923 25.644, 20.733 26, 23.501 26 C 27.009 26, 27.180 25.854, 26.560 23.383 C 26.199 21.944, 25.644 19.469, 25.327 17.883 C 24.530 13.900, 23.534 14.275, 22.087 19.104" stroke="none" fill="#2167dc" fill-rule="evenodd"/><path d="M 13.230 2.115 C 8.198 4.606, 2.522 10.887, 0.922 15.737 C 0.296 17.632, -0.041 22.272, 0.173 26.048 C 0.627 34.097, 3.738 39.463, 10.841 44.456 C 14.473 47.009, 16.254 47.524, 22.525 47.841 C 28.525 48.144, 30.747 47.817, 34.273 46.110 C 43.350 41.716, 49 32.615, 49 22.388 C 49 18.810, 48.598 16.130, 48.107 16.434 C 47.615 16.738, 46.957 15.965, 46.644 14.716 C 45.730 11.078, 39.360 4.353, 34.682 2.088 C 28.765 -0.776, 19.046 -0.764, 13.230 2.115 M 20.599 9.839 C 19.804 11.126, 11.569 36.244, 11.531 37.500 C 11.514 38.050, 12.608 38.500, 13.962 38.500 C 15.984 38.500, 16.584 37.828, 17.312 34.750 L 18.199 31 23.561 31 L 28.923 31 30 35 C 30.727 37.701, 31.633 38.995, 32.789 38.985 C 36.970 38.947, 36.949 37.773, 32.520 23.486 L 28.183 9.500 24.685 9.195 C 22.760 9.028, 20.922 9.317, 20.599 9.839 M 22.087 19.104 C 21.411 21.361, 20.616 23.836, 20.322 24.604 C 19.923 25.644, 20.733 26, 23.501 26 C 27.009 26, 27.180 25.854, 26.560 23.383 C 26.199 21.944, 25.644 19.469, 25.327 17.883 C 24.530 13.900, 23.534 14.275, 22.087 19.104 M 0.336 24 C 0.336 28.125, 0.513 29.813, 0.728 27.750 C 0.944 25.688, 0.944 22.313, 0.728 20.250 C 0.513 18.188, 0.336 19.875, 0.336 24" stroke="none" fill="#f9fafb" fill-rule="evenodd"/></svg>